:FULLY-SPECIFIED
:FORCE-ALL-JOINTS-BE-3DOF
:DEGREES
2752
root -5.559 13.9753 -28.4071 1242 -65.4881 -161.137
lfemur -59.6177 42.9998 -6.60274
ltibia 67.8989 0 0
lfoot -2.43896 -1.56525 0
ltoes -31.5748 0 0
rfemur -30.8106 -18.7141 21.5963
rtibia 81.866 0 0
rfoot -35.2584 -24.75 0
rtoes -13.9333 0 0
lowerback 15.6667 5.79914 0.491115
upperback -4.01752 8.07856 1.4492
thorax -13.4247 3.78607 -0.844322
lowerneck -2.49027 9.60068 2.10698
upperneck 7.69873 12.5515 1.93281
head 2.89222 6.33604 0.677191
lclavicle -6.93634e-14 -1.82882e-14 0
lhumerus 3.65819 10.5334 84.1427
lradius 94.6518 0 0
lwrist -18.716 0 0
lhand -39.7287 388.035 0
lfingers 7.12502 0 0
lthumb -12.7062 -662.371 0
rclavicle -6.93634e-14 -1.82882e-14 0
rhumerus -57.8841 50.9998 -110.268
rradius 114.084 0 0
rwrist -84.7016 0 0
rhand 4.82202 -386.895 0
rfingers 7.12502 0 0
rthumb 30.2002 305.554 0
2753
root -5.56817 13.9642 -28.4139 162.127 -65.5549 -161.24
lfemur -59.8704 43.1992 -6.6935
ltibia 68.2832 -0 0
lfoot -2.58955 -1.7929 -0.0010933
ltoes -31.6347 0 0
rfemur -30.8078 -18.8071 21.5176
rtibia 82.1533 -0 0
rfoot -35.5536 -24.8204 -1.21214e-05
rtoes -13.9386 0 0
lowerback 15.5805 5.792 0.426453
upperback -4.05494 8.05459 1.43841
thorax -13.4244 3.78057 -0.80754
lowerneck -2.48911 9.60077 2.11182
upperneck 7.75623 12.5503 1.93174
head 2.912 6.33551 0.678373
lclavicle 5.48149e-14 -1.59028e-15 0
lhumerus 3.64195 10.6396 84.1403
lradius 94.612 -0 0
lwrist -18.8228 0 0
lhand -39.7168 28.008 2.59074e-05
lfingers 7.12502 -0 0
lthumb -12.6947 57.6027 2.42119e-05
rclavicle 5.48149e-14 -1.59028e-15 0
rhumerus -57.9326 50.9131 -110.314
rradius 114.076 -0 0
rwrist -84.662 0 0
rhand 4.90333 -26.837 -0.000192604
rfingers 7.12502 -0 0
rthumb 30.2778 -54.3739 -0.000233071
2754
root -5.57734 13.9531 -28.4207 162.24 -65.6071 -161.334
lfemur -60.0788 43.3633 -6.77149
ltibia 68.6002 -0 0
lfoot -2.71665 -1.97105 -0.00257316
ltoes -31.7003 0 0
rfemur -30.8087 -18.8834 21.4497
rtibia 82.3915 -0 0
rfoot -35.7965 -24.8749 -0.000486859
rtoes -13.9446 0 0
lowerback 15.5089 5.78705 0.37212
upperback -4.08732 8.03598 1.42912
thorax -13.4257 3.7766 -0.777446
lowerneck -2.47667 9.60314 2.14037
upperneck 7.80025 12.5497 1.93038
head 2.92707 6.33526 0.679008
lclavicle 5.48149e-14 -1.59028e-15 0
lhumerus 3.62402 10.7282 84.1324
lradius 94.5854 -0 0
lwrist -18.9092 0 0
lhand -39.7074 27.9855 5.10653e-05
lfingers 7.12502 -0 0
lthumb -12.6857 57.5807 4.77236e-05
rclavicle 5.48149e-14 -1.59028e-15 0
rhumerus -57.9724 50.8448 -110.351
rradius 114.071 -0 0
rwrist -84.628 0 0
rhand 4.96679 -26.7898 -0.000435823
rfingers 7.12502 -0 0
rthumb 30.3383 -54.3157 -0.000530442
2755
root -5.58651 13.942 -28.4276 162.34 -65.6458 -161.419
lfemur -60.2469 43.4956 -6.83684
ltibia 68.8569 -0 0
lfoot -2.82268 -2.10448 -0.00417271
ltoes -31.7708 0 0
rfemur -30.8131 -18.9444 21.3918
rtibia 82.5857 -0 0
rfoot -35.9924 -24.9156 -0.00122394
rtoes -13.9512 0 0
lowerback 15.4505 5.78412 0.327234
upperback -4.11516 8.02226 1.42127
thorax -13.4285 3.77404 -0.753384
lowerneck -2.47351 9.60446 2.13894
upperneck 7.83225 12.5496 1.92875
head 2.93795 6.33526 0.679164
lclavicle 5.48149e-14 -1.59028e-15 0
lhumerus 3.60455 10.8008 84.1196
lradius 94.5709 -0 0
lwrist -18.9769 0 0
lhand -39.7003 27.967 7.34108e-05
lfingers 7.12502 -0 0
lthumb -12.6788 57.5627 6.86053e-05
rclavicle 5.48149e-14 -1.59028e-15 0
rhumerus -58.0044 50.7932 -110.38
rradius 114.051 -0 0
rwrist -84.5992 0 0
rhand 5.0143 -26.7522 -0.000690306
rfingers 7.12502 -0 0
rthumb 30.3837 -54.27 -0.000844108
2756
root -5.59568 13.931 -28.4344 162.428 -65.6723 -161.495
lfemur -60.3784 43.5995 -6.88983
ltibia 69.0605 -0 0
lfoot -2.91007 -2.19797 -0.00570725
ltoes -31.8454 0 0
rfemur -30.8204 -18.9914 21.3429
rtibia 82.741 -0 0
rfoot -36.1467 -24.9442 -0.00208064
rtoes -13.9583 0 0
lowerback 15.404 5.78303 0.290914
upperback -4.1389 8.01296 1.4148
thorax -13.4326 3.77273 -0.734697
lowerneck -2.47058 9.60589 2.13752
upperneck 7.85369 12.55 1.9269
head 2.94515 6.33552 0.678907
lclavicle 5.48149e-14 -1.59028e-15 0
lhumerus 3.58374 10.8593 84.1023
lradius 94.5743 -0 0
lwrist -19.0276 0 0
lhand -39.6952 27.9523 9.16485e-05
lfingers 7.12502 -0 0
lthumb -12.6739 57.5483 8.56433e-05
rclavicle 5.48149e-14 -1.59028e-15 0
rhumerus -58.0297 50.7566 -110.402
rradius 114.058 -0 0
rwrist -84.5751 0 0
rhand 5.04778 -26.7233 -0.000929682
rfingers 7.12502 -0 0
rthumb 30.4156 -54.2353 -0.00114192
2757
root -5.60485 13.9199 -28.4412 162.506 -65.688 -161.564
lfemur -60.4774 43.6784 -6.93093
ltibia 69.2179 -0 0
lfoot -2.98123 -2.25631 -0.00705703
ltoes -31.9233 0 0
rfemur -30.8302 -19.0257 21.3021
rtibia 82.8626 -0 0
rfoot -36.2646 -24.9627 -0.00295854
rtoes -13.9656 0 0
lowerback 15.3681 5.78359 0.262285
upperback -4.15904 8.00762 1.40964
thorax -13.4379 3.77257 -0.72073
lowerneck -2.46787 9.60742 2.13611
upperneck 7.86603 12.5509 1.92485
head 2.96314 6.33921 0.674295
lclavicle 5.48149e-14 -1.59028e-15 0
lhumerus 3.56175 10.9056 84.0811
lradius 94.573 -0 0
lwrist -19.063 0 0
lhand -39.692 27.941 0.0001051
lfingers 7.12502 -0 0
lthumb -12.6708 57.5372 9.82008e-05
rclavicle 5.48149e-14 -1.59028e-15 0
rhumerus -58.049 50.7334 -110.418
rradius 114.064 -0 0
rwrist -84.5551 0 0
rhand 5.06912 -26.702 -0.00113766
rfingers 7.12502 -0 0
rthumb 30.436 -54.2104 -0.00140396
2758
root -5.61402 13.9088 -28.448 162.573 -65.694 -161.625
lfemur -60.548 43.7357 -6.96068
ltibia 69.3362 -0 0
lfoot -3.03858 -2.2843 -0.00815199
ltoes -32.0037 0 0
rfemur -30.8421 -19.0487 21.2686
rtibia 82.9557 -0 0
rfoot -36.3516 -24.9729 -0.00379199
rtoes -13.9731 0 0
lowerback 15.3413 5.7856 0.240468
upperback -4.17603 8.00577 1.40574
thorax -13.4443 3.7734 -0.710827
lowerneck -2.46538 9.60905 2.13471
upperneck 7.87769 12.5604 1.91122
head 2.95162 6.34077 0.672442
lclavicle 5.48149e-14 -1.59028e-15 0
lhumerus 3.53878 10.9412 84.0566
lradius 94.5754 -0 0
lwrist -19.0849 0 0
lhand -39.6903 27.9327 0.000113571
lfingers 7.12502 -0 0
lthumb -12.6692 57.529 0.000106092
rclavicle 5.48149e-14 -1.59028e-15 0
rhumerus -58.0634 50.7219 -110.429
rradius 114.07 -0 0
rwrist -84.5389 0 0
rhand 5.08023 -26.6873 -0.0013055
rfingers 7.12502 -0 0
rthumb 30.4466 -54.1939 -0.00161944
2759
root -5.62319 13.8977 -28.4548 162.632 -65.6915 -161.681
lfemur -60.5945 43.7749 -6.97976
ltibia 69.4224 -0 0
lfoot -3.08454 -2.28671 -0.00895862
ltoes -32.0858 0 0
rfemur -30.8557 -19.0618 21.2414
rtibia 83.0254 -0 0
rfoot -36.4128 -24.9766 -0.00453836
rtoes -13.9805 0 0
lowerback 15.3224 5.78886 0.224589
upperback -4.19035 8.00693 1.40305
thorax -13.4516 3.77511 -0.70433
lowerneck -2.46311 9.61078 2.13332
upperneck 7.8693 12.5542 1.9203
head 2.94194 6.34234 0.670853
lclavicle 5.48149e-14 -1.59028e-15 0
lhumerus 3.515 10.9682 84.0292
lradius 94.6082 -0 0
lwrist -19.0951 0 0
lhand -39.69 27.9271 0.000117227
lfingers 7.12502 -0 0
lthumb -12.6689 57.5234 0.000109473
rclavicle 5.48149e-14 -1.59028e-15 0
rhumerus -58.0738 50.7205 -110.437
rradius 114.074 -0 0
rwrist -84.5258 0 0
rhand 5.08302 -26.678 -0.00142978
rfingers 7.12502 -0 0
rthumb 30.4493 -54.1842 -0.00178388
2760
root -5.63236 13.8866 -28.4617 162.684 -65.6819 -161.731
lfemur -60.621 43.7992 -6.98888
ltibia 69.4836 -0 0
lfoot -3.12153 -2.26834 -0.00946878
ltoes -32.1688 0 0
rfemur -30.8704 -19.0662 21.2196
rtibia 83.0769 -0 0
rfoot -36.4538 -24.9758 -0.00516991
rtoes -13.9878 0 0
lowerback 15.3101 5.79315 0.213773
upperback -4.20247 8.01065 1.40151
thorax -13.4597 3.77755 -0.700585
lowerneck -2.46106 9.61261 2.13194
upperneck 7.86315 12.5564 1.91785
head 2.95123 6.34004 0.67248
lclavicle 5.48149e-14 -1.59028e-15 0
lhumerus 3.49059 10.9881 83.9995
lradius 94.6351 -0 0
lwrist -19.0951 0 0
lhand -39.696 27.9139 0.00010417
lfingers 7.12502 -0 0
lthumb -12.6747 57.5099 9.69512e-05
rclavicle 5.48149e-14 -1.59028e-15 0
rhumerus -58.081 50.7274 -110.441
rradius 114.094 -0 0
rwrist -84.5155 0 0
rhand 5.07939 -26.6732 -0.00151056
rfingers 7.12502 -0 0
rthumb 30.4458 -54.1802 -0.00189694
2761
root -5.64153 13.8755 -28.4685 162.729 -65.6663 -161.776
lfemur -60.632 43.8121 -6.9888
ltibia 69.5269 -0 0
lfoot -3.15196 -2.23397 -0.00969054
ltoes -32.2518 0 0
rfemur -30.8859 -19.0633 21.2024
rtibia 83.1154 -0 0
rfoot -36.4797 -24.9723 -0.00566758
rtoes -14.0012 0 0
lowerback 15.3029 5.79827 0.207145
upperback -4.21286 8.01644 1.40105
thorax -13.4684 3.78059 -0.698934
lowerneck -2.45924 9.61454 2.13057
upperneck 7.84795 12.5618 1.90991
head 2.92811 6.34546 0.668469
lclavicle 5.48149e-14 -1.59028e-15 0
lhumerus 3.46574 11.0029 83.968
lradius 94.6665 -0 0
lwrist -19.0869 0 0
lhand -39.7001 27.9204 8.70157e-05
lfingers 7.12502 -0 0
lthumb -12.6786 57.5161 8.08262e-05
rclavicle 5.48149e-14 -1.59028e-15 0
rhumerus -58.0859 50.741 -110.442
rradius 114.089 -0 0
rwrist -84.5127 0 0
rhand 5.07124 -26.6718 -0.00154991
rfingers 7.12502 -0 0
rthumb 30.4381 -54.1803 -0.00196049
2762
root -5.6507 13.8644 -28.4753 162.768 -65.646 -161.818
lfemur -60.6317 43.8169 -6.98031
ltibia 69.5592 -0 0
lfoot -3.17826 -2.18838 -0.00964108
ltoes -32.3341 0 0
rfemur -30.9017 -19.0544 21.1887
rtibia 83.146 -0 0
rfoot -36.4959 -24.9679 -0.00601637
rtoes -14.0057 0 0
lowerback 15.2996 5.80401 0.20383
upperback -4.22198 8.02384 1.40163
thorax -13.4776 3.78411 -0.698723
lowerneck -2.45763 9.61657 2.12922
upperneck 7.8426 12.562 1.91278
head 2.93968 6.34145 0.672463
lclavicle 5.48149e-14 -1.59028e-15 0
lhumerus 3.44064 11.0142 83.9353
lradius 94.7012 -0 0
lwrist -19.072 0 0
lhand -39.7034 27.9259 7.1752e-05
lfingers 7.12502 -0 0
lthumb -12.6819 57.5214 6.64864e-05
rclavicle 5.48149e-14 -1.59028e-15 0
rhumerus -58.0894 50.7596 -110.443
rradius 114.083 -0 0
rwrist -84.5028 0 0
rhand 5.06049 -26.6727 -0.00155069
rfingers 7.12502 -0 0
rthumb 30.4278 -54.1831 -0.00197724
